/* XPM */
static char *affignlogo_xpm[] = {
/* columns rows colors chars-per-pixel */
"128 128 2 1 ",
"  c #5860C2",
". c None",
/* pixels */
"................................................................................................................................",
"................................................................................................................................",
".................................................................                                                   ............",
"..................................................................                                                  ............",
"............................................ .....................                                                 .............",
"............................................ .....................                                                 .............",
"............................................  .....................                                                .............",
"...........................................   .....................                                               ..............",
"...........................................   ......................                                              ..............",
"...........................................    .....................                                              ..............",
"..........................................     .....................                                             ...............",
"..........................................     .....................                                             ...............",
"..........................................      .....................                                            ...............",
".........................................       .....................                                           ................",
".........................................       ......................                                          ................",
".........................................        .....................                                          ................",
"........................................         .....................                                         .................",
"........................................          .....................                                        .................",
"........................................          .....................                                       ..................",
".......................................           .....................                                       ..................",
".......................................            .....................                                      ..................",
".......................................            .....................                                      ..................",
"......................................             .....................                                     ...................",
"......................................              .....................                                    ...................",
"......................................              .....................                                   ....................",
".....................................               .....................                                   ....................",
".....................................                .....................                                  ....................",
".....................................                .....................                                 .....................",
"....................................                 .....................                                 .....................",
"....................................                  .....................                                .....................",
"....................................                  .....................                               ......................",
"...................................                   .....................                               ......................",
"...................................                    .....................                              ......................",
"...................................                    .....................                             .......................",
"..................................                     .....................                             .......................",
"..................................                      .....................                            .......................",
".................................                       .....................                           ........................",
".................................                       .....................                           ........................",
".................................                        .....................                          ........................",
"................................                         .....................                         .........................",
"................................                         .....................                         .........................",
"................................                          .....................                        .........................",
"...............................                           .....................                       ..........................",
"...............................                           .....................                       ..........................",
"...............................                            .....................                      ..........................",
"..............................                             .....................                     ...........................",
"..............................                             .....................                     ...........................",
"..............................                              .....................                    ...........................",
".............................                               .....................                   ............................",
".............................                               ......................                  ............................",
".............................                                .....................                  ............................",
"............................                                 .....................                 .............................",
"............................                                 ......................                .............................",
"............................                                  .....................                .............................",
"...........................                                   .....................               ..............................",
"...........................                                    .....................              ..............................",
"...........................                                    .....................             ...............................",
"..........................                                     .....................             ...............................",
"..........................                                      .....................            ...............................",
".....................................................................................           ................................",
".....................................................................................           ................................",
"......................................................................................          ................................",
"......................................................................................         .................................",
"......................................................................................         .................................",
".......................................................................................        .................................",
".......................................................................................       ..................................",
".......................................................................................       ..................................",
"........................................................................................      ..................................",
"........................................................................................     ...................................",
"........................................................................................     ...................................",
".........................................................................................    ...................................",
".........................................................................................   ....................................",
".........................................................................................   ....................................",
"..........................................................................................  ....................................",
".......................................................................................... .....................................",
".......................................................................................... .....................................",
"................................................................................................................................",
"................................................................................................................................",
"................................................................................................................................",
"...................                                                    .........................................................",
"..................                                                     .........................................................",
"..................                                                     .........................................................",
"..................                                                      ........................................................",
".................                                                       ........................................................",
".................                                                       ........................................................",
".................                                                        .......................................................",
"................                                                         .......................................................",
"................                                                         .......................................................",
"................                                                          ......................................................",
"...............                                                           ......................................................",
"...............                                                           ......................................................",
"...............                                                            .....................................................",
"..............                                                             .....................................................",
"..............                                                              ....................................................",
"..............                                                              ....................................................",
".............                                                               ....................................................",
".............                                                                ...................................................",
".............                                                                ...................................................",
"............                                                                 ...................................................",
"............                                                                  ..................................................",
"............                                                                  ..................................................",
"...........                                                                   ..................................................",
"...........                                                                    .................................................",
"...........                                                                    .................................................",
"..........                                                                     .................................................",
"..........                                                                      ................................................",
"..........                                                                      ................................................",
".........                                                                       ................................................",
".........                                                                        ...............................................",
".........                                                                        ...............................................",
"........                                                                         ...............................................",
"........                                                                          ..............................................",
".......                                                                           ..............................................",
".......                                                                           ..............................................",
".......                                                                            .............................................",
"......                                                                             .............................................",
"......                                                                             .............................................",
"......                                                                              ............................................",
".....                                                                               ............................................",
".....                                                                               ............................................",
".....                                                                                ...........................................",
"....                                                                                 ...........................................",
"....                                                                                 ...........................................",
"....                                                                                  ..........................................",
"................................................................................................................................",
"................................................................................................................................",
"................................................................................................................................",
"................................................................................................................................"
};
